<?xml version="1.0" encoding="UTF-8"?>
<!DOCTYPE svg PUBLIC "-//W3C//DTD SVG 1.1//EN" "http://www.w3.org/Graphics/SVG/1.1/DTD/svg11.dtd">
<!-- Creator: CorelDRAW X7 -->
<svg xmlns="http://www.w3.org/2000/svg" xml:space="preserve" width="0.947516in" height="0.12765in" version="1.1" style="shape-rendering:geometricPrecision; text-rendering:geometricPrecision; image-rendering:optimizeQuality; fill-rule:evenodd; clip-rule:evenodd"
viewBox="0 0 91483 12325"
 xmlns:xlink="http://www.w3.org/1999/xlink">
 <defs>
  <style type="text/css">
   <![CDATA[
    .fil1 {fill:white}
    .fil0 {fill:white;fill-rule:nonzero}
   ]]>
  </style>
 </defs>
 <g id="Layer_x0020_1">
  <metadata id="CorelCorpID_0Corel-Layer"/>
  <g id="_2103712048">
   <path class="fil0" d="M8870 2996c161,-530 392,-1030 697,-1466 449,-642 1046,-1129 1816,-1368 723,-224 1579,-222 2576,68 1080,313 2161,627 3242,940 83,25 167,49 251,73 0,98 0,196 0,293 0,197 0,392 0,588 -1165,-275 -2329,-552 -3493,-827 -530,-126 -1028,-146 -1479,-48 -472,104 -886,335 -1230,706 -642,692 -1041,1838 -1127,3454 2183,57 4366,115 6549,173 267,7 528,14 780,21 0,293 0,587 0,881 -252,6 -513,13 -780,21 -2180,58 -4361,116 -6541,175 105,1233 529,2503 1299,3334 322,346 702,606 1138,745 416,132 882,153 1391,32 714,-170 1428,-339 2142,-509l1260 -290 86 405c-594,195 -1205,352 -1705,506 -1790,551 -2819,685 -3718,476 -638,-148 -1064,-505 -1416,-1004 -1536,-2179 -1588,-4367 -2378,-6818 -238,-739 -508,-1385 -866,-1892 -352,-499 -834,-814 -1472,-963 -898,-208 -2077,-63 -3868,488 -499,154 -1110,311 -1704,506l0 0 2 -453c1159,-335 2318,-677 3476,-1015 991,-289 1843,-292 2561,-71 767,235 1359,720 1807,1357 303,435 533,933 704,1460l0 22z"/>
   <path class="fil0" d="M17162 10682l86 405 -3574 1056c-724,210 -1396,232 -2005,95 -645,-145 -1210,-469 -1693,-925 -628,-592 -1095,-1398 -1390,-2300l0 -24c-306,902 -773,1713 -1400,2309 -483,458 -1050,784 -1695,932 -609,139 -1279,118 -2003,-92 -1162,-338 -2324,-679 -3488,-1013 12,-2389 20,-2841 28,-5231l387 -12 389 -79c-6,1792 -16,2830 -22,4622 902,214 1805,427 2708,641 509,120 974,100 1392,-35 435,-139 814,-401 1137,-750 439,-478 770,-1108 990,-1795 224,-699 333,-1448 333,-2148 1,-982 -107,-1821 -303,-2514 -192,-679 -475,-1214 -832,-1600 -343,-367 -755,-599 -1225,-700 -448,-96 -944,-75 -1470,50 -1185,283 -2317,562 -3479,859l2 -453 0 0c594,-195 1205,-352 1704,-505 1791,-551 2970,-697 3869,-488 638,148 1120,464 1472,963 357,507 627,1153 865,1891 790,2452 843,4639 2378,6819 352,499 778,856 1417,1004 898,209 1927,74 3718,-477 499,-153 1110,-310 1704,-505z"/>
  </g>
  <g id="_2103646864">
   <path class="fil0" d="M66608 1993l0 525 -2858 0 0 7813 -611 0 0 -7813 -4180 0 0 7813 -496 0 -5858 -7649 0 7649 -553 0 -178 0 -412 -934 0 0 -1050 -2389 0 0 -255 -579 -318 -722 0 0 -1427 -3235 -3444 7859 -653 0 3771 -8338 728 0 3238 7121 0 -7121 786 0 5568 7299 0 -7299c2734,0 5468,0 8202,0z"/>
   <path class="fil0" d="M35588 9777c1415,-108 2044,-736 2044,-1894 0,-973 -567,-1459 -1702,-1459l-1715 0c-1550,0 -2326,-699 -2326,-2099 0,-1348 829,-2087 2462,-2286 455,-56 684,-46 1139,-46 3240,0 6481,0 9721,0l0 525 -2857 0 0 7813 -611 0 0 -7813c-2093,0 -4168,24 -6276,28 -371,0 -705,-2 -1076,48 -1259,168 -1889,709 -1889,1731 0,1011 571,1516 1713,1516l1715 0c1543,0 2315,681 2315,2042 0,1378 -1074,2408 -2321,2445l0 3 -5092 0 -554 0 0 -554 0 -7095 -5858 7649 -496 0c0,-2780 0,-5559 0,-8338l554 0c0,2433 0,4866 0,7299l5568 -7299 786 0 0 7784 4756 0z"/>
   <rect class="fil1" x="21710" y="1993" width="553" height="8338"/>
   <path class="fil0" d="M67959 2158l0 -305 0 -197 196 0 2974 0c1412,0 2478,348 3196,1041 652,629 1009,1534 1072,2712 -688,-2262 -1731,-3199 -4370,-3242 -831,-14 -1835,-9 -3068,-9z"/>
   <path class="fil0" d="M67792 10471l0 -4686 1004 0 0 3965 2108 0c1098,0 1917,-301 2456,-902 544,-606 816,-1531 816,-2773 0,-1084 -270,-1893 -808,-2422 -539,-532 -1361,-798 -2464,-798l-1042 0 -1066 0 -1004 0 0 -416c1233,0 2237,-5 3068,8 2638,44 3682,981 4370,3243 6,125 10,254 10,385 0,1517 -364,2661 -1089,3431 -729,774 -1812,1162 -3247,1162l-2915 0 -197 0 0 -197z"/>
   <path class="fil0" d="M91232 10178l11 458c-1852,48 -3049,-959 -3609,-2311 -55,-130 -102,-263 -145,-400 -42,137 -90,270 -144,400 -560,1352 -1757,2359 -3609,2311l22 -918c1417,37 2329,-726 2753,-1749 182,-439 279,-929 290,-1426 10,-501 -65,-1010 -226,-1486 -403,-1197 -1362,-2175 -2848,-2243l20 -458c1598,108 2845,1002 3533,3144 220,681 297,1366 517,2046 571,1760 1650,2740 3435,2632l0 0z"/>
   <path class="fil0" d="M91483 2604c-1486,68 -2444,1046 -2848,2244 -161,475 -236,985 -226,1486 11,496 108,986 290,1425 425,1024 1336,1787 2754,1750l11 460c-1786,108 -2865,-872 -3436,-2632 -220,-680 -297,-1366 -516,-2047 -689,-2141 -1936,-3036 -3534,-3144l-20 458 40 -918c1918,88 3152,1337 3667,2867l56 175 55 -175c516,-1530 1749,-2779 3668,-2867l39 918zm-3718 5248c-15,-45 -30,-90 -44,-136l0 0c14,46 29,91 44,136zm-3798 2575l22 -918 0 0 -22 918zm153 -917c1343,-12 2211,-759 2622,-1751l9 -20c39,-97 74,-195 105,-296 60,-195 105,-396 134,-601 8,-53 15,-107 20,-161 12,-115 19,-231 22,-347 4,-179 -4,-360 -22,-539 18,179 26,360 22,539 -3,116 -10,232 -22,347 -5,54 -12,108 -20,161 -29,205 -74,407 -134,601 -31,101 -66,199 -105,296l-9 20c-410,992 -1279,1739 -2622,1751zm2882 -3791c-4,-37 -9,-74 -15,-111 6,37 11,74 15,111zm-360 -1280c-65,-141 -139,-276 -222,-406 83,130 157,265 222,406zm-331 -568c-17,-24 -35,-48 -53,-71 18,23 36,47 53,71z"/>
   <path class="fil0" d="M76509 9173c0,1337 933,1513 1816,1493l4130 -96 0 -349c-1726,32 -3201,23 -4410,-27 -27,-1 -54,-2 -81,-3 -1033,-69 -1455,-1099 -1455,-2489l0 1471z"/>
   <path class="fil0" d="M82615 9918l0 -347 -4131 -84c-385,-8 -827,11 -827,-616l0 -2369 4380 -118 0 -699 -4380 -119 0 -2368c0,-320 0,-659 694,-663l4264 -28 0 -703 -4264 -146c-893,-30 -1682,381 -1682,1540l0 4201c0,1390 422,2420 1454,2489 27,2 55,2 82,3 1209,50 2684,59 4410,27z"/>
  </g>
 </g>
</svg>
