<?xml version="1.0" encoding="UTF-8"?>
<!DOCTYPE svg PUBLIC "-//W3C//DTD SVG 1.1//EN" "http://www.w3.org/Graphics/SVG/1.1/DTD/svg11.dtd">
<!-- Creator: CorelDRAW X7 -->
<svg xmlns="http://www.w3.org/2000/svg" xml:space="preserve" width="0.742654in" height="0.665504in" version="1.1" style="shape-rendering:geometricPrecision; text-rendering:geometricPrecision; image-rendering:optimizeQuality; fill-rule:evenodd; clip-rule:evenodd"
viewBox="0 0 3223 2888"
 xmlns:xlink="http://www.w3.org/1999/xlink">
 <defs>
  <style type="text/css">
   <![CDATA[
    .fil0 {fill:white}
   ]]>
  </style>
 </defs>
 <g id="Layer_x0020_1_0">
  <metadata id="CorelCorpID_0Corel-Layer"/>
  <g id="_1435019760">
   <polygon class="fil0" points="0,2888 516,2888 516,2202 0,2718 "/>
   <polygon class="fil0" points="677,2888 1193,2888 1193,1650 1131,1588 677,2042 "/>
   <polygon class="fil0" points="1353,2888 1870,2888 1870,1718 1565,2022 1353,1810 "/>
   <polygon class="fil0" points="2030,2888 2546,2888 2546,1041 2030,1558 "/>
   <polygon class="fil0" points="2707,2888 3223,2888 3223,970 3082,840 2915,673 2707,881 "/>
   <polygon class="fil0" points="0,2536 1131,1405 1383,1658 1565,1840 1748,1658 2915,491 3025,601 3223,0 2622,198 2732,308 1565,1475 1131,1040 0,2171 "/>
  </g>
 </g>
</svg>
