<?xml version="1.0" encoding="UTF-8"?>
<!DOCTYPE svg PUBLIC "-//W3C//DTD SVG 1.1//EN" "http://www.w3.org/Graphics/SVG/1.1/DTD/svg11.dtd">
<!-- Creator: CorelDRAW X7 -->
<svg xmlns="http://www.w3.org/2000/svg" xml:space="preserve" width="1.49981in" height="1.202in" version="1.1" style="shape-rendering:geometricPrecision; text-rendering:geometricPrecision; image-rendering:optimizeQuality; fill-rule:evenodd; clip-rule:evenodd"
viewBox="0 0 800178 641288"
 xmlns:xlink="http://www.w3.org/1999/xlink">
 <defs>
  <style type="text/css">
   <![CDATA[
    .fil0 {fill:white}
   ]]>
  </style>
 </defs>
 <g id="Layer_x0020_1">
  <metadata id="CorelCorpID_0Corel-Layer"/>
  <g id="_1277876496">
   <polygon class="fil0" points="247926,0 744471,0 744471,94907 247926,94907 "/>
   <path class="fil0" d="M222479 133421l496545 0 0 94908 -320635 0c-45744,-43856 -107662,-70962 -175910,-71498l0 -23410z"/>
   <path class="fil0" d="M431368 266841l368810 0 0 94907 -327868 0c-7169,-34704 -21330,-66849 -40942,-94907z"/>
   <path class="fil0" d="M477261 400262l211504 0 0 94908 -224214 0c8475,-25513 13078,-52793 13078,-81152 0,-4615 -129,-9200 -368,-13756z"/>
   <path class="fil0" d="M448136 533684l328660 0 0 94907 -414525 0c35996,-23851 65644,-56507 85865,-94907z"/>
  </g>
  <path class="fil0" d="M224516 192253c123999,0 224519,100520 224519,224519 0,123997 -100520,224516 -224519,224516 -123996,0 -224516,-100519 -224516,-224516 0,-123999 100520,-224519 224516,-224519zm0 412962c-104073,0 -188443,-84369 -188443,-188443 0,-104076 84370,-188443 188443,-188443 104076,0 188444,84367 188444,188443 0,104074 -84368,188443 -188444,188443z"/>
  <path class="fil0" d="M251930 319600l14169 -42526 24929 8305 -14168 42529c63793,17089 57630,88349 11403,95749 54709,34698 12357,120413 -73092,89400l-13766 41316 -24926 -8307 13764 -41316 -18839 -6279 -13768 41321 -24927 -8308 13765 -41316 -49073 -16352 14537 -26856c16188,8458 25829,8876 28615,474l37982 -113998c2533,-11174 -17698,-16697 -28619,-17234l9339 -28037 48905 16852 14170 -42524 24930 8305 -14169 42524 18839 6278zm-28527 22797l-15923 47947c79693,31786 93197,-33139 15923,-47947zm36214 122570c3046,-8992 4773,-32082 -60928,-48628l-17780 53600c19347,7717 69023,23620 78708,-4972z"/>
 </g>
</svg>
