<?xml version="1.0" encoding="UTF-8"?>
<!DOCTYPE svg PUBLIC "-//W3C//DTD SVG 1.1//EN" "http://www.w3.org/Graphics/SVG/1.1/DTD/svg11.dtd">
<!-- Creator: CorelDRAW X7 -->
<svg xmlns="http://www.w3.org/2000/svg" xml:space="preserve" width="1.23437in" height="1.23611in" version="1.1" style="shape-rendering:geometricPrecision; text-rendering:geometricPrecision; image-rendering:optimizeQuality; fill-rule:evenodd; clip-rule:evenodd"
viewBox="0 0 151388 151602"
 xmlns:xlink="http://www.w3.org/1999/xlink">
 <defs>
  <style type="text/css">
   <![CDATA[
    .fil0 {fill:white}
   ]]>
  </style>
 </defs>
 <g id="Layer_x0020_1">
  <metadata id="CorelCorpID_0Corel-Layer"/>
  <g id="_2079149040">
   <path class="fil0" d="M62863 12568c5948,754 29888,5888 37541,7436l28327 5633c2095,408 7904,1142 9178,2074 -2935,10270 -9144,27777 -12804,38397 -4416,12818 -8806,25390 -13577,37992 -4499,11887 -10283,27477 -18529,32734 -6221,3966 -14504,3648 -19429,-899 -4801,-4431 -5825,-13758 -5520,-20403l-66798 -26877c-881,7238 -2264,12245 -93,19533 4096,13744 12802,15986 22793,20741 4913,2339 9979,4672 14953,6799 8117,3474 22724,10766 30037,13486 12665,4712 25068,2125 33597,-4915 12107,-9993 21306,-39667 28274,-58777 5573,-15286 11409,-33049 16514,-48764 921,-2834 1813,-5482 2707,-8321 960,-3050 2299,-5817 373,-8684 -1695,-2523 -4137,-2594 -7462,-3256l-81769 -16288c-7574,-1463 -8400,5033 -10473,10872l-23319 64021c-733,2005 -2584,6212 -2514,8358 183,5638 8562,8713 11598,1018 1050,-2660 1988,-5395 2940,-8086 3803,-10744 7836,-21182 11627,-31893 1917,-5414 3893,-10649 5806,-15957 897,-2489 5124,-14817 6022,-15974z"/>
   <path class="fil0" d="M65355 86070c-4380,1695 -4815,6512 -2403,9211 2141,2395 16803,6466 20837,7788 2942,964 8038,3298 11088,2259 3320,-1131 5084,-5634 2616,-9114 -1422,-2005 -6835,-3244 -10019,-4287 -3626,-1187 -7138,-2355 -10762,-3545 -2810,-923 -8480,-3426 -11357,-2312z"/>
   <path class="fil0" d="M75890 62123c-3704,786 -6194,4767 -3953,8674 1555,2712 5762,3440 9614,4700 3833,1254 18981,6931 22050,6367 3583,-658 6087,-4912 3833,-8698 -1554,-2612 -5814,-3462 -9613,-4702 -3600,-1174 -7166,-2341 -10788,-3521 -2426,-790 -8769,-3324 -11143,-2820z"/>
   <path class="fil0" d="M86270 37960c-3584,725 -6027,4318 -4307,8203 1442,3255 5531,3632 9299,4725 3610,1046 19868,5968 22576,5532 3558,-573 6157,-4567 4142,-8401 -1630,-3101 -5473,-3541 -9435,-4581 -3565,-936 -20011,-5936 -22275,-5478z"/>
   <path class="fil0" d="M58779 56864c-8543,2367 -4256,13555 3534,11427 7572,-2067 4105,-13543 -3534,-11427z"/>
   <path class="fil0" d="M49134 79471c-7532,2104 -4591,13350 3819,11384 2839,-663 5179,-3979 4045,-7468 -889,-2733 -4235,-4930 -7864,-3916z"/>
   <path class="fil0" d="M67424 32719c-5310,1628 -5376,8239 -1086,10599 5006,2752 11093,-1421 9076,-7017 -934,-2592 -4315,-4708 -7990,-3582z"/>
  </g>
 </g>
</svg>
